<svg class="animated" id="freepik_stories-logic" xmlns="http://www.w3.org/2000/svg" viewBox="0 0 500 500" version="1.1" xmlns:xlink="http://www.w3.org/1999/xlink" xmlns:svgjs="http://svgjs.com/svgjs"><style>svg#freepik_stories-logic:not(.animated) .animable {opacity: 0;}svg#freepik_stories-logic.animated #freepik--background-complete--inject-10 {animation: 1s 1 forwards cubic-bezier(.36,-0.01,.5,1.38) slideUp;animation-delay: 0s;}svg#freepik_stories-logic.animated #freepik--speech-bubble--inject-10 {animation: 1.5s Infinite  linear floating;animation-delay: 1s;}            @keyframes slideUp {                0% {                    opacity: 0;                    transform: translateY(30px);                }                100% {                    opacity: 1;                    transform: inherit;                }            }                    @keyframes floating {                0% {                    opacity: 1;                    transform: translateY(0px);                }                50% {                    transform: translateY(-10px);                }                100% {                    opacity: 1;                    transform: translateY(0px);                }            }        </style><g id="freepik--background-complete--inject-10" class="animable" style="transform-origin: 261.6px 249.52px;"><rect x="49.69" y="29.53" width="91.76" height="151.89" style="fill: rgb(224, 224, 224); transform-origin: 95.57px 105.475px;" id="elx9o7kp1b2wg" class="animable"></rect><rect x="46.64" y="29.53" width="91.76" height="151.89" style="fill: rgb(235, 235, 235); transform-origin: 92.52px 105.475px;" id="elu4ehoby0pti" class="animable"></rect><rect x="50.55" y="32.61" width="83.95" height="145.73" style="fill: rgb(250, 250, 250); transform-origin: 92.525px 105.475px;" id="el24xdadeb7d3" class="animable"></rect><rect x="66.53" y="51.55" width="51.62" height="107.86" style="fill: rgb(235, 235, 235); transform-origin: 92.34px 105.48px;" id="elxm5sd9p2b5" class="animable"></rect><path d="M66.53,121.24c-.12-10.08,8.94-19.92,18.92-21.32,4.75-.67,9.81.27,14.25-1.55,7.94-3.26,10.46-13.8,18.45-16.93l.36,78h-52Z" style="fill: rgb(224, 224, 224); transform-origin: 92.51px 120.44px;" id="el42yv0xbfqp" class="animable"></path><g id="el8xuet63ycye"><rect x="271.56" y="83.25" width="8.03" height="39.97" style="fill: rgb(224, 224, 224); transform-origin: 275.575px 103.235px; transform: rotate(-0.31deg);" class="animable"></rect></g><g id="elh3j3t5jg3zi"><rect x="201.92" y="83.39" width="20.8" height="22.07" style="fill: rgb(235, 235, 235); transform-origin: 212.32px 94.425px; transform: rotate(-0.572939deg);" class="animable"></rect></g><g id="elmvi9x8fzfy"><rect x="222.63" y="83.28" width="20.8" height="22.07" style="fill: rgb(245, 245, 245); transform-origin: 233.03px 94.315px; transform: rotate(-0.31deg);" class="animable"></rect></g><path d="M201.9,89.54c13.82.12,27.68,0,41.5-.19a.22.22,0,0,0,0-.44c-13.82-.08-27.68,0-41.5.25a.19.19,0,0,0,0,.38Z" style="fill: rgb(224, 224, 224); transform-origin: 222.665px 89.2341px;" id="elhz13406ljz" class="animable"></path><g id="el2pzcdti5usp"><rect x="188.94" y="105.14" width="37.79" height="17.98" style="fill: rgb(235, 235, 235); transform-origin: 207.835px 114.13px; transform: rotate(-0.31deg);" class="animable"></rect></g><g id="elxhx614t5hqo"><rect x="226.56" y="104.93" width="37.79" height="17.98" style="fill: rgb(245, 245, 245); transform-origin: 245.455px 113.92px; transform: rotate(-0.31deg);" class="animable"></rect></g><path d="M188.92,110.24c25.11.28,50.3,0,75.41-.37a.23.23,0,0,0,0-.45c-25.11-.13-50.31-.11-75.41.44a.19.19,0,0,0,0,.38Z" style="fill: rgb(224, 224, 224); transform-origin: 226.621px 109.854px;" id="elrmwrxmkq7e9" class="animable"></path><rect x="174.79" y="123.22" width="146.42" height="6.44" style="fill: rgb(224, 224, 224); transform-origin: 248px 126.44px;" id="elk6tec5emq1" class="animable"></rect><rect x="198.76" y="126.32" width="5.94" height="21.98" style="fill: rgb(224, 224, 224); transform-origin: 201.73px 137.31px;" id="eltsv25ixi6rs" class="animable"></rect><rect x="287.49" y="126.32" width="5.94" height="21.98" style="fill: rgb(224, 224, 224); transform-origin: 290.46px 137.31px;" id="ellm2kom5euqc" class="animable"></rect><g id="elyheg52wuoen"><rect x="279.44" y="68.35" width="8.03" height="54.97" style="fill: rgb(235, 235, 235); transform-origin: 283.455px 95.835px; transform: rotate(-0.31deg);" class="animable"></rect></g><g id="el4oqap5t5s7y"><rect x="287.51" y="78.59" width="12.48" height="44.55" style="fill: rgb(245, 245, 245); transform-origin: 293.75px 100.865px; transform: rotate(-0.31deg);" class="animable"></rect></g><path d="M299.79,87.14a44.67,44.67,0,0,1-6.24.22,44.79,44.79,0,0,1-6.24-.22,45.82,45.82,0,0,1,6.24-.21A45.7,45.7,0,0,1,299.79,87.14Z" style="fill: rgb(224, 224, 224); transform-origin: 293.55px 87.1447px;" id="elahmmiiqq3xr" class="animable"></path><path d="M299.79,85.27a44.67,44.67,0,0,1-6.24.22,44.79,44.79,0,0,1-6.24-.22,45.82,45.82,0,0,1,6.24-.21A45.7,45.7,0,0,1,299.79,85.27Z" style="fill: rgb(224, 224, 224); transform-origin: 293.55px 85.2747px;" id="elk7aw3i09pm" class="animable"></path><path d="M299.79,116.41a45.7,45.7,0,0,1-6.24.21,45.82,45.82,0,0,1-6.24-.21,44.79,44.79,0,0,1,6.24-.22A44.67,44.67,0,0,1,299.79,116.41Z" style="fill: rgb(224, 224, 224); transform-origin: 293.55px 116.405px;" id="elrgqagkeeq8r" class="animable"></path><path d="M299.79,114.54a47.72,47.72,0,0,1-6.24.21,47.85,47.85,0,0,1-6.24-.21,44.79,44.79,0,0,1,6.24-.22A44.67,44.67,0,0,1,299.79,114.54Z" style="fill: rgb(224, 224, 224); transform-origin: 293.55px 114.534px;" id="elzy2i49g7l69" class="animable"></path><path d="M293.75,110.45c-.12,0-.21-4.49-.21-10s.09-10,.21-10,.22,4.49.22,10S293.87,110.45,293.75,110.45Z" style="fill: rgb(224, 224, 224); transform-origin: 293.755px 100.45px;" id="eldd9hjynne2l" class="animable"></path><rect x="299.93" y="89.5" width="13.59" height="33.63" style="fill: rgb(235, 235, 235); transform-origin: 306.725px 106.315px;" id="el65wm9wrp5wx" class="animable"></rect><path d="M285.5,77.71a2.31,2.31,0,1,1-2.31-2.31A2.3,2.3,0,0,1,285.5,77.71Z" style="fill: rgb(224, 224, 224); transform-origin: 283.19px 77.71px;" id="el8sl20oue23v" class="animable"></path><rect x="282.48" y="84.06" width="1.43" height="32.7" style="fill: rgb(224, 224, 224); transform-origin: 283.195px 100.41px;" id="ellyi1el8x739" class="animable"></rect><path d="M383.56,372.17a34.71,34.71,0,0,0-14.86-5.12c-2.43-.25-5.08-.18-7,1.3a1.43,1.43,0,0,0-.72,1.28,1.55,1.55,0,0,0,.68.88c6.05,4.61,15.2,5.19,21.93,1.66" style="fill: rgb(224, 224, 224); transform-origin: 372.285px 370.695px;" id="el0119fu916u9" class="animable"></path><path d="M383.18,371.75a72.85,72.85,0,0,1-9.6-8.45,24.34,24.34,0,0,1-6-11.13,4.52,4.52,0,0,1,.48-3.72c7.65,6,13.66,13.7,15.14,23.3" style="fill: rgb(224, 224, 224); transform-origin: 375.289px 360.1px;" id="elvqdl56a145" class="animable"></path><path d="M383.48,372.11a34.86,34.86,0,0,1,.18-12.6,17,17,0,0,1,6.71-10.4c1.33,3.09.76,6.65-.17,9.88a48,48,0,0,1-6.66,14" style="fill: rgb(224, 224, 224); transform-origin: 387.073px 361.05px;" id="el8g48idlo1p5" class="animable"></path><path d="M391,385.55c-4.55.55-8.51,2.95-11.91,6a22.55,22.55,0,0,0-6.82,11.71c4.46-.28,8.25-3.43,11-7s4.65-7.41,7.67-10.71" style="fill: rgb(224, 224, 224); transform-origin: 381.635px 394.405px;" id="elzhwl6d50cqa" class="animable"></path><path d="M392.61,387.7a29.41,29.41,0,0,1,3.4-27.81c2.59,9.23,1.64,19.65-3.4,27.81" style="fill: rgb(224, 224, 224); transform-origin: 393.987px 373.795px;" id="elhj2bzqs9sr" class="animable"></path><path d="M402.52,399.5a21.28,21.28,0,0,0-20.32,11.7,1.6,1.6,0,0,0-.14,1.6,1.53,1.53,0,0,0,1.35.39c4-.26,7.56-2.67,10.49-5.41s5.48-5.92,8.71-8.29" style="fill: rgb(224, 224, 224); transform-origin: 392.259px 406.34px;" id="els3vow3wc45" class="animable"></path><path d="M402.21,398.86a37.85,37.85,0,0,1-.38-21.15c.75-2.72,2-5.58,4.51-6.86a.87.87,0,0,1,.69-.12.9.9,0,0,1,.44.5,12.61,12.61,0,0,1,1.06,6.07,37.67,37.67,0,0,1-.95,6.14c-.79,3.76-1.21,7.79-3.27,11a20.84,20.84,0,0,0-1.31,2.42c-.39.82-.39,1.11-.75,1.76" style="fill: rgb(224, 224, 224); transform-origin: 404.535px 384.782px;" id="eloo5quocslhr" class="animable"></path><path d="M428.44,402.77c-1.94-7.4.12-16.36,4.78-22.42.34-.45.8-.92,1.36-.87.86.08,1.08,1.22,1,2.08a40.56,40.56,0,0,1-7.18,21.21" style="fill: rgb(224, 224, 224); transform-origin: 431.654px 391.123px;" id="el5vl5j8xhs9e" class="animable"></path><path d="M430.81,404.39a32.64,32.64,0,0,0,26.76-5.45,21.68,21.68,0,0,0-14.49-1.77c-4.84,1.1-9.26,3.27-12.27,7.22" style="fill: rgb(224, 224, 224); transform-origin: 444.19px 400.947px;" id="eltbn5j447pj" class="animable"></path><path d="M432.8,399.46c5-8.2,14.68-13.55,24.29-14-1.11,3.91-4.32,6.95-7.95,8.78s-7.66,2.64-11.65,3.41c-1.55.3-3.68.63-4.69,1.85" style="fill: rgb(224, 224, 224); transform-origin: 444.945px 392.48px;" id="eln63yprbzt1o" class="animable"></path><path d="M428.94,375.57a71,71,0,0,0,3.11-14.22c.37-4.84-.32-9.91-2.83-14.07-4.7,9.1-5.18,19.72-.42,28.78" style="fill: rgb(224, 224, 224); transform-origin: 428.799px 361.67px;" id="elal97xx1at3e" class="animable"></path><path d="M444.76,367.58c5.5-10,16.71-18,28.06-19.08-4.38,10.89-16.32,19.31-28.06,19.08" style="fill: rgb(224, 224, 224); transform-origin: 458.79px 358.042px;" id="ela60e50x091" class="animable"></path><path d="M441.31,369.54c8.19,1.24,15.17,6.48,22.83,9.65a10.25,10.25,0,0,0,5.17,1,4,4,0,0,0,2.53-7.15,11,11,0,0,0-3.75-2.27c-8.35-3.48-17.29-3.56-26.08-1.46" style="fill: rgb(224, 224, 224); transform-origin: 457.343px 374.061px;" id="elhb9sy5jb5gf" class="animable"></path><path d="M436.56,375.28c1.86.54,2.49,1.5,4,2.75a42.85,42.85,0,0,0,17.32,8.89c.66.17,1.53.23,1.86-.36s-.08-1.16-.45-1.62a23.76,23.76,0,0,0-10.46-7.1c-4-1.49-7.46-3.28-12.23-2.9" style="fill: rgb(224, 224, 224); transform-origin: 448.211px 380.963px;" id="el6n0ksr5sq4o" class="animable"></path><path d="M431.21,340.57a32.81,32.81,0,0,0,25.13,8.55,1.75,1.75,0,0,0,1.14-.41c.63-.69-.12-1.75-.86-2.33-7.39-5.76-16.34-8.15-25.41-5.81" style="fill: rgb(224, 224, 224); transform-origin: 444.463px 344.464px;" id="elh41finskyj" class="animable"></path><path d="M437.56,338.24a35,35,0,0,1,31.35-5.17A24.89,24.89,0,0,1,454,339.63a47.33,47.33,0,0,1-16.41-1.39" style="fill: rgb(224, 224, 224); transform-origin: 453.235px 335.625px;" id="elu9kc5dg7tnd" class="animable"></path><path d="M435,322.29c-.73-7.37-.26-13.19-.77-20.6,0-.59-.17-1.3-.72-1.52-.77-.29-1.42.65-1.67,1.44A23.66,23.66,0,0,0,435,322.13" style="fill: rgb(224, 224, 224); transform-origin: 432.887px 311.203px;" id="el1jfu5zvr23t" class="animable"></path><path d="M434.5,323.11a43.43,43.43,0,0,0,12.22-11.87c2.41-3.31,4.45-7.26,3.9-11.31a11.68,11.68,0,0,0-8.81,4.37,24.62,24.62,0,0,0-4.5,9c-1,3.24-1.66,6.58-2.81,9.77" style="fill: rgb(224, 224, 224); transform-origin: 442.605px 311.52px;" id="el37ye95b4618" class="animable"></path><path d="M446.5,319.77a98.33,98.33,0,0,0,30.06-17.72c-3.59-1.45-7.7-.58-11.29.87-8.2,3.31-14.9,8.9-18.92,16.77" style="fill: rgb(224, 224, 224); transform-origin: 461.455px 310.537px;" id="eljqsriaadaz" class="animable"></path><path d="M437.88,327.14c5.55.61,11.18,1,16.69.08s10.52-3.05,15.58-5.18a1.77,1.77,0,0,0,1.06-.8,1.21,1.21,0,0,0-.38-1.33,3.34,3.34,0,0,0-1.33-.63c-5.5-1.53-11.43-.81-16.84,1a77.72,77.72,0,0,0-14.78,6.85" style="fill: rgb(224, 224, 224); transform-origin: 454.578px 323.107px;" id="elguuu8tm650c" class="animable"></path><path d="M406.19,340.82c-3.78-7.64-3.54-16.56-.26-24.44,2.3,3.51,2.58,8,2.16,12.15s-1.69,8.47-1.78,12.67" style="fill: rgb(224, 224, 224); transform-origin: 405.833px 328.79px;" id="ellemwxszkqj" class="animable"></path><path d="M391.07,333.19A34.07,34.07,0,0,0,365.75,344c4.71.74,9.57-.48,13.86-2.57a70.89,70.89,0,0,0,11.89-8" style="fill: rgb(224, 224, 224); transform-origin: 378.625px 338.702px;" id="elxq0pyu46f9o" class="animable"></path><path d="M380.9,329.79c-4.62-.37-9.07-1-13.52.42a16.21,16.21,0,0,0-10.3,8.73,24.35,24.35,0,0,0,12.67-2.39,72.46,72.46,0,0,0,11.15-6.76" style="fill: rgb(224, 224, 224); transform-origin: 368.99px 334.174px;" id="elntmpzx3hrvd" class="animable"></path><path d="M396,330c-4.16-2.73-8.43-5.5-13.28-6.63s-10.45-.3-13.83,3.35c3.92,2.3,8.68,2.57,13.22,2.57s10.12-.05,14.41,1.46" style="fill: rgb(224, 224, 224); transform-origin: 382.705px 326.825px;" id="el67q9ijlxz9i" class="animable"></path><path d="M396,330.17c-7.11-7-9.8-19.53-6.94-29.08A44.28,44.28,0,0,1,396,330.17" style="fill: rgb(224, 224, 224); transform-origin: 392.101px 315.63px;" id="elasou473enu4" class="animable"></path><path d="M415.54,310.38c1.34-3.12,2.28-6.39,3.49-9.56a27.25,27.25,0,0,1,5-8.82,13.11,13.11,0,0,1,8.81-4.57,35.51,35.51,0,0,1-17.1,23" style="fill: rgb(224, 224, 224); transform-origin: 424.19px 298.93px;" id="eln3t3141xgr" class="animable"></path><path d="M412,314.5c-2.22-3.05-4.79-7.2-7.79-9.48s-6.93-3.66-10.61-2.78A24.72,24.72,0,0,0,412,314.5" style="fill: rgb(224, 224, 224); transform-origin: 402.8px 308.236px;" id="el59ajged3043" class="animable"></path><path d="M412.71,310.63a52.41,52.41,0,0,1-3.51-11.36A17.7,17.7,0,0,1,411,287.72c3.9,7.38,5.16,15.3,1.93,23" style="fill: rgb(224, 224, 224); transform-origin: 411.839px 299.22px;" id="elk1c2t3whzcr" class="animable"></path><path d="M415.57,287.72c2.21-7.31,8.91-12.7,16.14-15.17a6.16,6.16,0,0,1,2.83-.43,2.46,2.46,0,0,1,2.09,1.74c.26,1.25-.76,2.36-1.73,3.19a54.83,54.83,0,0,1-19.33,10.67" style="fill: rgb(224, 224, 224); transform-origin: 426.121px 279.909px;" id="elm42g9zv9xyc" class="animable"></path><path d="M415.65,281.74c.28-4.72.58-9.5,2.11-14s4.49-8.66,8.79-10.62c.74,4.77-1.37,9.5-3.9,13.6s-5.59,8-7.11,12.54" style="fill: rgb(224, 224, 224); transform-origin: 421.12px 270.19px;" id="elvmnkztaxo0l" class="animable"></path><path d="M415.54,285c-1.83-5.34-2-12.11-5.21-16.75-2.23-3.25-5.81-5.46-7.73-8.9a13.5,13.5,0,0,0,.45,10.1A29.27,29.27,0,0,0,409,277.9c2.36,2.52,4.38,4.42,6.58,7.09" style="fill: rgb(224, 224, 224); transform-origin: 408.705px 272.175px;" id="eliftdbfhq4d" class="animable"></path><path d="M415.57,442c-.14,0-.26-35.56-.27-79.42s.1-79.43.24-79.43.26,35.55.27,79.43S415.72,442,415.57,442Z" style="fill: rgb(224, 224, 224); transform-origin: 415.555px 362.575px;" id="elk3e0l0skq5" class="animable"></path><path d="M446.65,335.45a6.82,6.82,0,0,1-1.34.5l-3.68,1.25c-3.1,1.05-7.36,2.58-12,4.48s-8.9,3.56-11.36,5.69a8.32,8.32,0,0,0-2.28,3c-.35.84-.42,1.35-.46,1.34s0-.13,0-.37a6.44,6.44,0,0,1,.26-1A8,8,0,0,1,418,347.1,19.94,19.94,0,0,1,423,344c2-.92,4.16-1.88,6.48-2.84,4.64-1.9,8.93-3.38,12.07-4.35,1.57-.49,2.85-.85,3.74-1.09A8.36,8.36,0,0,1,446.65,335.45Z" style="fill: rgb(224, 224, 224); transform-origin: 431.081px 343.58px;" id="elez22u4l4mz" class="animable"></path><path d="M456.84,310.43a2.54,2.54,0,0,1-.38.4l-1.14,1.07-4.26,3.87L436.88,328.4c-5.53,4.93-10.32,9.63-13.63,13.18-1.66,1.77-3,3.23-3.86,4.26l-1,1.17c-.24.27-.37.41-.39.39a3.4,3.4,0,0,1,.31-.45c.21-.29.53-.71,1-1.24.84-1.07,2.11-2.57,3.74-4.38A179.9,179.9,0,0,1,436.54,328c5.55-4.91,10.61-9.33,14.28-12.51l4.37-3.75,1.21-1A2.32,2.32,0,0,1,456.84,310.43Z" style="fill: rgb(224, 224, 224); transform-origin: 437.42px 328.916px;" id="el3sieqoqg6tv" class="animable"></path><path d="M430.91,333.41c-.15-.07,1-2.74,2.16-6.11s1.71-6.23,1.86-6.2a21.26,21.26,0,0,1-1.37,6.36,42.72,42.72,0,0,1-1.72,4.28A7,7,0,0,1,430.91,333.41Z" style="fill: rgb(224, 224, 224); transform-origin: 432.913px 327.255px;" id="elm1omxoi6eco" class="animable"></path><path d="M415.61,354.93a5.84,5.84,0,0,1-.86-1l-2.18-2.8c-1.84-2.37-4.38-5.65-7.22-9.23s-5.46-6.8-7.35-9.13L395.76,330a7.64,7.64,0,0,1-.77-1,5.34,5.34,0,0,1,.93.92c.57.62,1.37,1.53,2.36,2.66,2,2.27,4.62,5.45,7.47,9s5.35,6.9,7.11,9.33c.88,1.22,1.58,2.21,2.05,2.9A7.35,7.35,0,0,1,415.61,354.93Z" style="fill: rgb(224, 224, 224); transform-origin: 405.3px 341.965px;" id="elaa6oh0h4fh" class="animable"></path><path d="M408.79,346.19a12.59,12.59,0,0,1-2.85-5.35,15,15,0,0,1-.65-5.39l.23,0c-.11.41-.18.63-.22.62s0-.23,0-.66l.23,0a24.47,24.47,0,0,0,.91,5.24A40.79,40.79,0,0,0,408.79,346.19Z" style="fill: rgb(224, 224, 224); transform-origin: 407.026px 340.8px;" id="elj1xsbj7t9ia" class="animable"></path><path d="M400,335.12a8.8,8.8,0,0,0-2-1.16,13.36,13.36,0,0,0-5.53-.44,33.71,33.71,0,0,0-5.58.9,16.59,16.59,0,0,1-2.29.55,8,8,0,0,1,2.2-.9,25.12,25.12,0,0,1,5.63-1.06,12.21,12.21,0,0,1,5.71.61A3.51,3.51,0,0,1,400,335.12Z" style="fill: rgb(224, 224, 224); transform-origin: 392.3px 334.013px;" id="eld3qsh65g7c9" class="animable"></path><path d="M397.91,332.44c0,.08-1.16-.47-3.06-1.11a31.07,31.07,0,0,0-7.61-1.57,31.65,31.65,0,0,0-7.77.39c-2,.35-3.16.72-3.19.64a2.66,2.66,0,0,1,.81-.35,20,20,0,0,1,2.31-.64,26.94,26.94,0,0,1,7.88-.56A27.39,27.39,0,0,1,395,331a19.73,19.73,0,0,1,2.18,1A3,3,0,0,1,397.91,332.44Z" style="fill: rgb(224, 224, 224); transform-origin: 387.095px 330.805px;" id="eld4hoyjrtvwv" class="animable"></path><path d="M415.54,321.1a62.23,62.23,0,0,1-2.23-7.74,63.68,63.68,0,0,1-1.73-7.86,61.73,61.73,0,0,1,2.23,7.73A63.18,63.18,0,0,1,415.54,321.1Z" style="fill: rgb(224, 224, 224); transform-origin: 413.56px 313.3px;" id="eles4e3ltlgko" class="animable"></path><path d="M415.68,321.1a37.63,37.63,0,0,0-2.47-4.64,20.22,20.22,0,0,0-3.63-3.74c0-.06.6.15,1.4.72a11.17,11.17,0,0,1,2.65,2.73A10.3,10.3,0,0,1,415.68,321.1Z" style="fill: rgb(224, 224, 224); transform-origin: 412.63px 316.905px;" id="eliccu7cwyhor" class="animable"></path><path d="M415.57,423c-.05,0-.16-.85-.56-2.36a33.58,33.58,0,0,0-2.37-6.16c-2.46-5-6.93-11.39-12.61-17.76-2.82-3.22-5.55-6.25-7.87-9.16a63.67,63.67,0,0,1-5.62-8.11,38.46,38.46,0,0,1-2.84-6c-.26-.74-.45-1.32-.56-1.72a2.63,2.63,0,0,1-.14-.61s.3.81.89,2.26a43.92,43.92,0,0,0,3,5.91,70.12,70.12,0,0,0,5.68,8c2.33,2.87,5.06,5.89,7.88,9.11,5.7,6.39,10.16,12.84,12.55,17.94a30.45,30.45,0,0,1,2.25,6.27c.16.77.27,1.37.31,1.79A2.64,2.64,0,0,1,415.57,423Z" style="fill: rgb(224, 224, 224); transform-origin: 399.291px 397.06px;" id="elashhlb03f46" class="animable"></path><path d="M443.66,391.3a13.61,13.61,0,0,1-1.47.83,31.92,31.92,0,0,0-3.82,2.52,44.17,44.17,0,0,0-5,4.58c-1.76,1.86-3.57,4-5.42,6.33-3.7,4.64-7.16,8.75-9.23,12-1.05,1.63-1.82,3-2.32,4a10.92,10.92,0,0,1-.81,1.48,1.61,1.61,0,0,1,.14-.41c.11-.27.26-.66.49-1.16a37.92,37.92,0,0,1,2.19-4.06c2-3.36,5.45-7.52,9.14-12.15,1.85-2.32,3.69-4.48,5.48-6.34a41.24,41.24,0,0,1,5.14-4.54,27,27,0,0,1,3.94-2.41c.49-.24.89-.39,1.15-.51A2.29,2.29,0,0,1,443.66,391.3Z" style="fill: rgb(224, 224, 224); transform-origin: 429.625px 407.17px;" id="elvfcry3uoe1" class="animable"></path><path d="M444.21,401.59a21.24,21.24,0,0,1-3.11.46,39.82,39.82,0,0,0-7.38,1.45,22.21,22.21,0,0,0-6.61,3.47c-1.52,1.17-2.24,2.15-2.31,2.09a2.44,2.44,0,0,1,.46-.72,12,12,0,0,1,1.62-1.65,19.92,19.92,0,0,1,6.68-3.68,32.68,32.68,0,0,1,7.5-1.32A17.59,17.59,0,0,1,444.21,401.59Z" style="fill: rgb(224, 224, 224); transform-origin: 434.505px 405.312px;" id="el6np5pzp80mv" class="animable"></path><path d="M425.71,407.93c-.16-.09,1.24-2.23,2.32-5.11s1.26-5.46,1.45-5.43a5.32,5.32,0,0,1-.05,1.67,18.35,18.35,0,0,1-.91,3.93,19.41,19.41,0,0,1-1.81,3.61C426.16,407.46,425.77,408,425.71,407.93Z" style="fill: rgb(224, 224, 224); transform-origin: 427.61px 402.663px;" id="el3dt81c2h67l" class="animable"></path><path d="M452.75,363.68a2.79,2.79,0,0,1-.5.26l-1.46.67c-.64.27-1.42.62-2.29,1.08s-1.91.92-3,1.56l-1.7,1c-.59.34-1.17.74-1.79,1.13-1.25.75-2.51,1.69-3.84,2.64a66.17,66.17,0,0,0-14.8,15.32c-.91,1.37-1.8,2.65-2.52,3.93-.36.63-.74,1.23-1.06,1.83l-.91,1.72c-.6,1.09-1,2.13-1.46,3s-.75,1.68-1,2.33l-.62,1.48a2,2,0,0,1-.25.51,3.27,3.27,0,0,1,.15-.54l.53-1.52a24.12,24.12,0,0,1,.93-2.38c.4-.91.81-2,1.4-3.07l.88-1.75c.31-.61.69-1.22,1-1.86.7-1.29,1.58-2.59,2.49-4a63.75,63.75,0,0,1,14.9-15.43c1.36-.95,2.63-1.88,3.9-2.62.63-.39,1.22-.78,1.82-1.11l1.72-.95c1.09-.62,2.13-1.07,3-1.5s1.69-.76,2.34-1l1.51-.57A2,2,0,0,1,452.75,363.68Z" style="fill: rgb(224, 224, 224); transform-origin: 434.15px 382.91px;" id="elmms840fe04" class="animable"></path><path d="M430.53,378.57a3.51,3.51,0,0,1,1.22-1.82,7.67,7.67,0,0,1,4.92-1.89,13.31,13.31,0,0,1,5.18,1,7.48,7.48,0,0,1,2,.95,11.47,11.47,0,0,1-2.08-.6,15.6,15.6,0,0,0-5-.85A8.06,8.06,0,0,0,432,377,14.16,14.16,0,0,0,430.53,378.57Z" style="fill: rgb(224, 224, 224); transform-origin: 437.19px 376.715px;" id="el08o20jvkl6wk" class="animable"></path><path d="M427.2,382a18.24,18.24,0,0,0,1.4-4.55,18.74,18.74,0,0,0-.31-4.75,3.24,3.24,0,0,1,.58,1.32,9.38,9.38,0,0,1,.24,3.49,9.14,9.14,0,0,1-1,3.33C427.64,381.63,427.25,382,427.2,382Z" style="fill: rgb(224, 224, 224); transform-origin: 428.188px 377.35px;" id="elq1mrds2d9n" class="animable"></path><path d="M391,428.12c.77,13.59,4.86,27.41,11.16,41.39h27.4c6-13.84,9.82-27.64,10.49-41.39Z" style="fill: rgb(224, 224, 224); transform-origin: 415.525px 448.815px;" id="elmoob6e7os7g" class="animable"></path><path d="M435.62,450.11c0,.15-9,.26-20.14.26s-20.14-.11-20.14-.26,9-.25,20.14-.25S435.62,450,435.62,450.11Z" style="fill: rgb(250, 250, 250); transform-origin: 415.48px 450.115px;" id="el0nek8etgu2ob" class="animable"></path><path d="M435,455c0,.14-8.45.25-18.88.25s-18.89-.11-18.89-.25,8.46-.26,18.89-.26S435,454.9,435,455Z" style="fill: rgb(250, 250, 250); transform-origin: 416.115px 454.995px;" id="elil8agjho6ee" class="animable"></path><path d="M402.61,437a76.7,76.7,0,0,1,0,12.62,79.76,79.76,0,0,1,0-12.62Z" style="fill: rgb(250, 250, 250); transform-origin: 402.615px 443.31px;" id="eldmcl4stmutq" class="animable"></path><path d="M417.29,437a82.26,82.26,0,0,1,0,13.07,82.26,82.26,0,0,1,0-13.07Z" style="fill: rgb(250, 250, 250); transform-origin: 417.29px 443.535px;" id="elcttuf2bz3j" class="animable"></path><path d="M431.07,436.93a85.56,85.56,0,0,1,0,13.33,85.56,85.56,0,0,1,0-13.33Z" style="fill: rgb(250, 250, 250); transform-origin: 431.07px 443.595px;" id="elqetiqo1eanj" class="animable"></path><path d="M439.19,437c0,.15-10.57.26-23.62.26s-23.63-.11-23.63-.26,10.58-.25,23.63-.25S439.19,436.9,439.19,437Z" style="fill: rgb(250, 250, 250); transform-origin: 415.565px 437.005px;" id="elp80vjt9vztk" class="animable"></path><rect x="386.45" y="38.71" width="67.65" height="70.52" style="fill: rgb(224, 224, 224); transform-origin: 420.275px 73.97px;" id="el2sc3vw1zoq7" class="animable"></rect><rect x="381.87" y="38.71" width="67.65" height="70.52" style="fill: rgb(250, 250, 250); transform-origin: 415.695px 73.97px;" id="elrsemlna09u" class="animable"></rect><path d="M449.54,109.25H381.85V38.69h67.69Zm-67.65,0H449.5V38.73H381.89Z" style="fill: rgb(224, 224, 224); transform-origin: 415.695px 73.97px;" id="elm0e1bf5l6q" class="animable"></path><rect x="390.96" y="48.19" width="49.46" height="51.56" style="fill: rgb(255, 255, 255); transform-origin: 415.69px 73.97px;" id="elz3gfcsjw1jh" class="animable"></rect><path d="M391,100.09a7.69,7.69,0,0,1-1.22,1.42c-.79.84-1.9,2-3.14,3.19s-2.39,2.32-3.24,3.09a7.69,7.69,0,0,1-1.43,1.2,8.09,8.09,0,0,1,1.22-1.42c.79-.83,1.9-2,3.15-3.19s2.39-2.33,3.24-3.1A7.89,7.89,0,0,1,391,100.09Z" style="fill: rgb(224, 224, 224); transform-origin: 386.485px 104.54px;" id="elscaqc0abrcp" class="animable"></path><path d="M440.43,100a8.29,8.29,0,0,1,1.41,1.22c.84.79,2,1.9,3.19,3.14s2.32,2.39,3.1,3.23a8.74,8.74,0,0,1,1.19,1.43,7.23,7.23,0,0,1-1.42-1.21c-.83-.79-2-1.9-3.19-3.15s-2.32-2.4-3.1-3.24A7.51,7.51,0,0,1,440.43,100Z" style="fill: rgb(224, 224, 224); transform-origin: 444.875px 104.51px;" id="elgx693pfxydb" class="animable"></path><path d="M440.29,48.33a7.69,7.69,0,0,1,1.22-1.42c.79-.84,1.9-2,3.15-3.19s2.38-2.32,3.23-3.09a6.9,6.9,0,0,1,1.43-1.19,8.29,8.29,0,0,1-1.22,1.41c-.79.83-1.9,2-3.15,3.19s-2.39,2.33-3.24,3.1A7.89,7.89,0,0,1,440.29,48.33Z" style="fill: rgb(224, 224, 224); transform-origin: 444.805px 43.885px;" id="eldgyt9xt4fvf" class="animable"></path><path d="M390.83,48.45a7.69,7.69,0,0,1-1.42-1.22c-.84-.79-2-1.9-3.19-3.14s-2.32-2.39-3.09-3.23a7.58,7.58,0,0,1-1.19-1.43,7.77,7.77,0,0,1,1.41,1.21c.83.79,2,1.9,3.19,3.15s2.33,2.4,3.1,3.24A7.89,7.89,0,0,1,390.83,48.45Z" style="fill: rgb(224, 224, 224); transform-origin: 386.385px 43.94px;" id="elwd89sttuyv" class="animable"></path><path d="M440.29,99.75s0-.09,0-.25,0-.41,0-.72c0-.65,0-1.57,0-2.78,0-2.44,0-6-.05-10.51,0-9-.06-21.9-.1-37.3l.19.19-49.32,0h0l.22-.22c0,18.92,0,36.63,0,51.56l-.19-.19,35.72.1,10,0,2.66,0h.92a.72.72,0,0,1-.22,0h-.66l-2.62,0-10,0-35.84.1h-.19v-.19c0-14.93,0-32.64,0-51.56V48H391l49.32,0h.19v.19c0,15.45-.07,28.36-.1,37.42,0,4.5,0,8-.05,10.47,0,1.19,0,2.11,0,2.74,0,.3,0,.53,0,.7A1.66,1.66,0,0,1,440.29,99.75Z" style="fill: rgb(224, 224, 224); transform-origin: 415.66px 73.865px;" id="el91k92uitl07" class="animable"></path><rect x="407.44" y="65.72" width="16.51" height="16.51" style="fill: rgb(235, 235, 235); transform-origin: 415.695px 73.975px;" id="elaloz48ms5xg" class="animable"></rect></g><g id="freepik--Floor--inject-10" class="animable" style="transform-origin: 248px 470.47px;"><path d="M473.17,470.47c0,.14-100.82.26-225.16.26s-225.18-.12-225.18-.26,100.8-.26,225.18-.26S473.17,470.33,473.17,470.47Z" style="fill: rgb(38, 50, 56); transform-origin: 248px 470.47px;" id="elr4fv90jx0yi" class="animable"></path></g><g id="freepik--Character--inject-10" class="animable" style="transform-origin: 364.481px 265.157px;"><path d="M367.14,432.94l.78,37.6-49.49,1.17c.17-4.48,25.54-14,25.54-14l-1.55-24.08Z" style="fill: rgb(69, 90, 100); transform-origin: 343.175px 452.325px;" id="el3wg4eqfpr0x" class="animable"></path><g id="elpy17zclwz2b"><g style="opacity: 0.6; transform-origin: 358.792px 457.028px;" class="animable"><path d="M359.22,455.27a1.92,1.92,0,0,1,1.46,2.15,1.94,1.94,0,0,1-2.24,1.38,2,2,0,0,1-1.53-2.28,2,2,0,0,1,2.5-1.2" style="fill: rgb(255, 255, 255); transform-origin: 358.792px 457.028px;" id="elvem95jfvu7" class="animable"></path></g></g><g id="elodo3aetpb7c"><g style="opacity: 0.6; transform-origin: 343.162px 469.23px;" class="animable"><path d="M367.92,470.54l-.23-3.79-47.37,2.54s-2.18,1-1.89,2.42Z" style="fill: rgb(255, 255, 255); transform-origin: 343.162px 469.23px;" id="elclgiku34x6h" class="animable"></path></g></g><path d="M343.16,457.44c0,.23,1.23.3,2.43,1s1.87,1.65,2.09,1.55-.17-1.4-1.65-2.24S343.1,457.23,343.16,457.44Z" style="fill: rgb(38, 50, 56); transform-origin: 345.448px 458.599px;" id="elh09xag9bjp" class="animable"></path><path d="M338,459.59c0,.22,1,.58,1.86,1.53s1.11,2,1.35,1.95.36-1.31-.72-2.47S338,459.37,338,459.59Z" style="fill: rgb(38, 50, 56); transform-origin: 339.686px 461.281px;" id="el5jcym4y49os" class="animable"></path><path d="M335.23,465.53c.22,0,.53-1.11-.13-2.34s-1.8-1.71-1.89-1.52.62.85,1.14,1.87S335,465.51,335.23,465.53Z" style="fill: rgb(38, 50, 56); transform-origin: 334.35px 463.58px;" id="elk0wbpyfhc2" class="animable"></path><path d="M343.45,451.91c.11.21,1.21-.13,2.58-.08s2.44.44,2.56.24-.92-1-2.54-1S343.33,451.74,343.45,451.91Z" style="fill: rgb(38, 50, 56); transform-origin: 346.02px 451.598px;" id="elpt709598srg" class="animable"></path><path d="M344.48,446.34a5,5,0,0,0,2.48-.08,11.26,11.26,0,0,0,2.58-.81,12.79,12.79,0,0,0,1.4-.75,2.92,2.92,0,0,0,.73-.57.93.93,0,0,0,.08-1.21,1.33,1.33,0,0,0-1.07-.5,3.57,3.57,0,0,0-.93.14,9.36,9.36,0,0,0-1.52.54,8.76,8.76,0,0,0-2.25,1.47c-1.12,1-1.49,1.9-1.41,1.94s.65-.66,1.8-1.52a9.78,9.78,0,0,1,2.18-1.22,8.61,8.61,0,0,1,1.41-.45c.52-.15,1-.16,1.11.06s.06.11-.05.26a2.6,2.6,0,0,1-.54.42c-.43.28-.87.52-1.29.74a14.25,14.25,0,0,1-2.37.92A17.35,17.35,0,0,0,344.48,446.34Z" style="fill: rgb(38, 50, 56); transform-origin: 348.208px 444.466px;" id="elsnr6j93tc09" class="animable"></path><path d="M344.81,446.66a3.68,3.68,0,0,0,.59-2.28,7.36,7.36,0,0,0-.4-2.56,8.19,8.19,0,0,0-.67-1.41,2.07,2.07,0,0,0-1.62-1.14,1.13,1.13,0,0,0-1,.67,2.93,2.93,0,0,0-.24.87,5.19,5.19,0,0,0,0,1.58,5.28,5.28,0,0,0,1.13,2.39c1,1.19,2,1.44,2,1.36s-.78-.53-1.55-1.68a5.29,5.29,0,0,1-.84-2.18,4.43,4.43,0,0,1,0-1.36c.06-.5.25-.9.45-.86s.67.36.89.75a7.4,7.4,0,0,1,.64,1.25,8.11,8.11,0,0,1,.55,2.33C344.91,445.76,344.67,446.62,344.81,446.66Z" style="fill: rgb(38, 50, 56); transform-origin: 343.41px 442.965px;" id="elpinw6zh0pk" class="animable"></path><path d="M404.65,436.06l4.73,37.31,49.14-6.09c-.83-4.41-27.33-10.16-27.33-10.16l-2-24Z" style="fill: rgb(69, 90, 100); transform-origin: 431.585px 453.245px;" id="el07p7r6xahai5" class="animable"></path><g id="el2mznzap4nvs"><g style="opacity: 0.6; transform-origin: 416.433px 458.637px;" class="animable"><path d="M415.75,457a1.92,1.92,0,0,0-1.12,2.34,2,2,0,0,0,2.42,1,2,2,0,0,0,1.17-2.48,2,2,0,0,0-2.64-.82" style="fill: rgb(255, 255, 255); transform-origin: 416.433px 458.637px;" id="elsa78wk3n5ol" class="animable"></path></g></g><g id="el15y9ac8pb8v"><g style="opacity: 0.6; transform-origin: 433.791px 469.265px;" class="animable"><path d="M409.38,473.37l-.32-3.78,47.23-4.43s2.3.63,2.23,2.12Z" style="fill: rgb(255, 255, 255); transform-origin: 433.791px 469.265px;" id="eltn367i0l8d" class="animable"></path></g></g><path d="M432,456.78c0,.23-1.17.48-2.26,1.36s-1.61,1.91-1.84,1.84,0-1.41,1.31-2.45S432,456.57,432,456.78Z" style="fill: rgb(38, 50, 56); transform-origin: 429.911px 458.317px;" id="eloo3112rx99" class="animable"></path><path d="M437.36,458.16c.08.21-.91.73-1.61,1.79s-.81,2.1-1.05,2.12-.55-1.24.34-2.55S437.33,457.94,437.36,458.16Z" style="fill: rgb(38, 50, 56); transform-origin: 435.905px 460.081px;" id="el9di9ld2mms6" class="animable"></path><path d="M441,463.63c-.21.07-.68-1-.22-2.34s1.53-2,1.65-1.77-.49.92-.85,2S441.23,463.58,441,463.63Z" style="fill: rgb(38, 50, 56); transform-origin: 441.515px 461.554px;" id="eli8xkxwierx" class="animable"></path><path d="M430.86,451.36c-.07.22-1.21.05-2.56.3s-2.35.79-2.5.61.77-1.11,2.36-1.39S431,451.17,430.86,451.36Z" style="fill: rgb(38, 50, 56); transform-origin: 428.327px 451.555px;" id="el1p3292f5q6" class="animable"></path><path d="M429,446a4.9,4.9,0,0,1-2.46.29,11.33,11.33,0,0,1-2.66-.43,11.71,11.71,0,0,1-1.5-.53,3,3,0,0,1-.81-.46.94.94,0,0,1-.26-1.19,1.36,1.36,0,0,1,1-.65,3.25,3.25,0,0,1,.94,0,8.78,8.78,0,0,1,1.59.3,9.09,9.09,0,0,1,2.44,1.13c1.26.86,1.75,1.65,1.67,1.71s-.74-.55-2-1.23a10.21,10.21,0,0,0-2.33-.9,9.4,9.4,0,0,0-1.47-.24c-.53-.06-1,0-1.08.23,0,.08,0,.12.08.25a2.52,2.52,0,0,0,.6.33,13.66,13.66,0,0,0,3.87,1.11A16.75,16.75,0,0,1,429,446Z" style="fill: rgb(38, 50, 56); transform-origin: 425.1px 444.666px;" id="elrnutxfxetr" class="animable"></path><path d="M428.75,446.36c-.08.05-.66-.71-.92-2.17a7.07,7.07,0,0,1,0-2.59,7.62,7.62,0,0,1,.45-1.49,2,2,0,0,1,1.43-1.37,1.16,1.16,0,0,1,1.1.53,2.74,2.74,0,0,1,.36.82,4.73,4.73,0,0,1,.19,1.56,5.18,5.18,0,0,1-.76,2.54c-.81,1.32-1.78,1.72-1.81,1.64a17.17,17.17,0,0,0,1.28-1.89,5.15,5.15,0,0,0,.52-2.28,4.8,4.8,0,0,0-.21-1.34c-.14-.49-.38-.86-.57-.79s-.62.45-.77.87a7.6,7.6,0,0,0-.65,3.72C428.52,445.49,428.88,446.31,428.75,446.36Z" style="fill: rgb(38, 50, 56); transform-origin: 429.538px 442.548px;" id="elki3ldd8oc6r" class="animable"></path><path d="M324.2,233.21l81.61,2.61S424,357.12,423.47,365.54l11.2,88-32.59,1.14s-5.13-28.53-8.7-48.06c-2.38-13-6.72-32.05-7.9-42.9s-17.42-85.53-17.42-85.53-1.41,86.86-1.44,90.48,3.76,85.94,3.76,85.94H338c-1.67-14.86-5.64-74.32-6.5-86.34-1.54-21.7-9.13-84.12-9.84-99.78S324.2,233.21,324.2,233.21Z" style="fill: rgb(38, 50, 56); transform-origin: 378.114px 343.945px;" id="eluwdwpuuqhhe" class="animable"></path><path d="M393.42,246.23a12.49,12.49,0,0,0,.4-3.77,12.81,12.81,0,0,0-.17-3.79,26.12,26.12,0,0,0-.23,7.56Z" style="fill: rgb(69, 90, 100); transform-origin: 393.568px 242.45px;" id="eltigzrm8wgbi" class="animable"></path><path d="M390.45,245.35a18.54,18.54,0,0,0-.6-6.4,9.47,9.47,0,0,0,0,3.23A9.1,9.1,0,0,0,390.45,245.35Z" style="fill: rgb(69, 90, 100); transform-origin: 390.111px 242.15px;" id="elqhrah6simtk" class="animable"></path><path d="M340.64,245.36a6.87,6.87,0,0,0,.29-2.77,6.8,6.8,0,0,0-.29-2.76,7.13,7.13,0,0,0-.28,2.76A7.2,7.2,0,0,0,340.64,245.36Z" style="fill: rgb(69, 90, 100); transform-origin: 340.646px 242.595px;" id="elceie4au9f2" class="animable"></path><path d="M337.44,246.81a10.33,10.33,0,0,0-.58-7,25.15,25.15,0,0,0,.34,3.49A26.35,26.35,0,0,0,337.44,246.81Z" style="fill: rgb(69, 90, 100); transform-origin: 337.329px 243.31px;" id="elkq37vfoghb" class="animable"></path><path d="M363.44,276.24a6.69,6.69,0,0,0-.19-1.42c-.17-1-.39-2.3-.65-3.84-.54-3.24-1.17-7.73-1.58-12.72s-.5-9.53-.49-12.81q0-2.34,0-3.9a8.17,8.17,0,0,0,0-1.43,7.09,7.09,0,0,0-.18,1.42c-.08.92-.16,2.25-.21,3.9a116.27,116.27,0,0,0,2.08,25.62c.31,1.61.6,2.91.83,3.81A6.6,6.6,0,0,0,363.44,276.24Z" style="fill: rgb(69, 90, 100); transform-origin: 361.764px 258.18px;" id="el1k7g3xsinkl" class="animable"></path><path d="M366.23,241a3,3,0,0,1,1.63.9,2.32,2.32,0,0,1,.54,1.83,2.13,2.13,0,0,1-3.7.7,2.28,2.28,0,0,1-.17-1.89,3,3,0,0,1,1.18-1.45s-.21,0-.54.15a2.24,2.24,0,0,0-1,1.16,2.61,2.61,0,0,0,.1,2.3,2.6,2.6,0,0,0,4.65-.88,2.64,2.64,0,0,0-.75-2.18,2.32,2.32,0,0,0-1.37-.71C366.42,240.93,366.23,241,366.23,241Z" style="fill: rgb(69, 90, 100); transform-origin: 366.445px 243.366px;" id="eliiu6rb1w6rl" class="animable"></path><path d="M401.76,374.87a70.12,70.12,0,0,0,8.25-3.09,67.82,67.82,0,0,0,8-3.61,70.87,70.87,0,0,0-8.25,3.09A67.82,67.82,0,0,0,401.76,374.87Z" style="fill: rgb(69, 90, 100); transform-origin: 409.885px 371.52px;" id="elainfmx7in7" class="animable"></path><path d="M344,132.94s-10.47,3.79-13.33,13.64c-2.21,7.64-13.62,48.61-13.62,48.61l-23.61-16.47-9,10S306,229.91,318,229.89c10,0,18.8-7.66,18.8-7.66l12.84-37.12Z" style="fill: rgb(215, 187, 124); transform-origin: 317.04px 181.415px;" id="eliyjrrhtrdh" class="animable"></path><path d="M419,140.78l7.13,4.79-19.54,77.84,2.73,30.2c-5.14,4.48-19.54,8.35-44.15,6.95a110.65,110.65,0,0,1-42.88-11.45l4.92-41.34,15.66-50.4L344,132.94l25-5.07,28.51,2.43Z" style="fill: rgb(215, 187, 124); transform-origin: 374.21px 194.36px;" id="el7pdu98o82gr" class="animable"></path><path d="M343,195.19c.17,0,.32-9.7.33-21.67s-.11-21.68-.28-21.68-.32,9.7-.33,21.68S342.85,195.19,343,195.19Z" style="fill: rgb(38, 50, 56); transform-origin: 343.025px 173.515px;" id="el6c3hql91to" class="animable"></path><polygon points="444.75 208.14 363.61 186.68 363.44 186.64 325.76 176.67 305.21 254.38 343.06 264.38 353.6 224.52 434.74 245.98 444.75 208.14" style="fill: rgb(69, 90, 100); transform-origin: 374.98px 220.525px;" id="el5cykwjxmain" class="animable"></polygon><g id="el37wzgm2zofn"><polygon points="444.75 208.14 363.61 186.68 363.44 186.64 325.76 176.67 305.21 254.38 343.06 264.38 353.6 224.52 434.74 245.98 444.75 208.14" style="opacity: 0.3; transform-origin: 374.98px 220.525px;" class="animable"></polygon></g><polygon points="409.98 198.94 328.83 177.49 328.66 177.44 290.99 167.48 270.44 245.18 308.28 255.19 318.82 215.32 399.97 236.78 409.98 198.94" style="fill: rgb(69, 90, 100); transform-origin: 340.21px 211.335px;" id="eliegshgrbv98" class="animable"></polygon><path d="M418.79,140.77,425,145a23.45,23.45,0,0,1,10.31,16.74c2.12,18.42,3.8,51.65-.38,58.55-5.63,9.31-65.74,12.35-65.74,12.35l-4-18.63,49-11.28-.61-15.48Z" style="fill: rgb(215, 187, 124); transform-origin: 401.348px 186.705px;" id="ele4anz8mie2j" class="animable"></path><path d="M413.55,167.48a6.4,6.4,0,0,0,0,.65c0,.46,0,1.09,0,1.9,0,1.66.07,4.1.06,7.22,0,6.22-.4,15.15.05,25.92l.19-.25L370,212.61l-4.86,1.08-.29.07.06.29c1.42,6.5,2.78,12.77,4.05,18.63l.06.24h.24a309.62,309.62,0,0,0,40.44-4.3c5-.86,8.88-1.67,11.55-2.27,1.34-.3,2.37-.55,3.06-.72l.78-.21a.91.91,0,0,0,.26-.09.8.8,0,0,0-.27,0l-.79.16-3.08.63c-2.68.54-6.61,1.3-11.57,2.11a329.06,329.06,0,0,1-40.4,4.07l.29.22c-1.26-5.86-2.62-12.12-4-18.63l-.23.36,4.85-1.07,43.91-9.8.21,0v-.21c-.5-10.74-.14-19.67-.26-25.9,0-3.12-.13-5.56-.2-7.23-.05-.8-.09-1.43-.11-1.89A3,3,0,0,0,413.55,167.48Z" style="fill: rgb(38, 50, 56); transform-origin: 395.1px 200.2px;" id="el0bz0a1xgl7n" class="animable"></path><path d="M358.83,217.56a14.09,14.09,0,0,0-4.58-4c-3.09-1.75-9.22-2.34-10.41-4.38s-3,.11-2,2.73c.68,1.67,5.17,5.49,5.17,5.49s-4,1.9-7.09.85-13.48-2-14.25-.37c-.87,1.79,1.8,1.78,3,2.18.93.31,8.08,2.21,8.08,2.21s-13,2.18-14.52,3.13.5,2.22,1.32,2.09c.52-.08-.89,1.63,1,2.78,1.27.77,6.8.86,8.26.59l3-.57-8.94,2.81s-1.28,1.76,1.07,2.07c1,.13,29.52-1.49,31.69-1.8,3.75-.53,9.06-1.49,9.06-1.49l-3-15.41Z" style="fill: rgb(159, 115, 98); transform-origin: 345.185px 221.774px;" id="ellumbf7pko3" class="animable"></path><path d="M281.53,204.47l1.7-5.77s8.85-4.59,10.1-7.28l.82-1.5s4.63-1.68,4.29-4.49c1.21-1.56,1.38-2.75-.15-3.36,0,0,3.51-1.2,2.22-4.39s-15.11,3.74-15.11,3.74-6.84,2-4.88,5.37c0,0-1,3.11,0,5.33,0,0-3.2,2.71-1.28,5.53Z" style="fill: rgb(159, 115, 98); transform-origin: 289.711px 190.655px;" id="elqpf3yof01rr" class="animable"></path><path d="M282.34,191.66a1,1,0,0,0-.62-.08,2.78,2.78,0,0,0-1.58.69,3.83,3.83,0,0,0-1.27,2.21,8.09,8.09,0,0,0,.08,3.09,19.67,19.67,0,0,0,1.8,5.22A6.31,6.31,0,0,0,282,204.7a34.65,34.65,0,0,1-2.52-7.23,8,8,0,0,1-.12-2.89,3.59,3.59,0,0,1,1-2A3.53,3.53,0,0,1,282.34,191.66Z" style="fill: rgb(101, 70, 60); transform-origin: 280.549px 198.131px;" id="elxwssuh5mep" class="animable"></path><path d="M285.56,186.3c.08.14,2.76-1.41,6.35-2.64s6.66-1.68,6.63-1.85a6.66,6.66,0,0,0-2,.14,28,28,0,0,0-4.77,1.2,27.74,27.74,0,0,0-4.49,2A6.2,6.2,0,0,0,285.56,186.3Z" style="fill: rgb(101, 70, 60); transform-origin: 292.05px 184.048px;" id="elhix19nf5gsa" class="animable"></path><path d="M285.57,189.68c.07.15,2.83-1.12,6.38-2.29s6.52-1.8,6.49-2a32.63,32.63,0,0,0-12.87,4.25Z" style="fill: rgb(101, 70, 60); transform-origin: 292.005px 187.541px;" id="elxsnb3tyfdf" class="animable"></path><path d="M282.94,184.93c0-.15-1.08-.11-1.95.79s-.91,2-.77,2,.4-.84,1.15-1.58S283,185.08,282.94,184.93Z" style="fill: rgb(101, 70, 60); transform-origin: 281.551px 186.292px;" id="els7x3uo6xtvg" class="animable"></path><path d="M287.12,193.49a20.92,20.92,0,0,0,3.42-1.63,19.59,19.59,0,0,0,3.36-1.78,10.4,10.4,0,0,0-3.6,1.29A10.16,10.16,0,0,0,287.12,193.49Z" style="fill: rgb(101, 70, 60); transform-origin: 290.51px 191.785px;" id="elx6vhcjhhzi" class="animable"></path><path d="M364.3,80.86a5.09,5.09,0,0,1-1.2-10,5.29,5.29,0,0,1,5.44-8.45,6.33,6.33,0,0,1,10-4.25,7.11,7.11,0,0,1,8.74.65,5.07,5.07,0,0,1,3.64,9" style="fill: rgb(38, 50, 56); transform-origin: 376.079px 68.9024px;" id="el8fnb2olri44" class="animable"></path><path d="M363.5,81.5a21.58,21.58,0,0,1,23.28-17.74l1.12.11c11.93,1.83,17,13,14.87,24.86l-5.51,39.79-.52,5.68a14,14,0,0,1-15.31,12.61h0A13.94,13.94,0,0,1,369,131.56l.82-8.36s-11.37-2.88-10.42-14.42C359.81,103.2,361.68,91.8,363.5,81.5Z" style="fill: rgb(159, 115, 98); transform-origin: 381.294px 105.271px;" id="elfhdkog4x2ho" class="animable"></path><path d="M369.67,123.18a28.06,28.06,0,0,0,15.53-3s-4.34,8-15.74,5.84Z" style="fill: rgb(101, 70, 60); transform-origin: 377.33px 123.285px;" id="elel2ok03hvb" class="animable"></path><path d="M366,92.25a1.66,1.66,0,0,0,1.43,1.81,1.58,1.58,0,0,0,1.84-1.33,1.66,1.66,0,0,0-1.43-1.81A1.59,1.59,0,0,0,366,92.25Z" style="fill: rgb(38, 50, 56); transform-origin: 367.635px 92.4908px;" id="el2i759j985w6" class="animable"></path><path d="M365.45,87.37c.18.24,1.51-.57,3.29-.4s3,1.18,3.2,1-.07-.49-.6-1a4.56,4.56,0,0,0-2.54-1,4.3,4.3,0,0,0-2.64.59C365.58,86.89,365.35,87.27,365.45,87.37Z" style="fill: rgb(38, 50, 56); transform-origin: 368.717px 86.9699px;" id="eluqj7dwxwmki" class="animable"></path><path d="M381.71,93.83a1.65,1.65,0,0,0,1.43,1.81A1.57,1.57,0,0,0,385,94.32a1.65,1.65,0,0,0-1.43-1.81A1.58,1.58,0,0,0,381.71,93.83Z" style="fill: rgb(38, 50, 56); transform-origin: 383.355px 94.0759px;" id="elqce5s48o3kh" class="animable"></path><path d="M382.83,89.35c.19.23,1.52-.57,3.29-.4s3,1.18,3.2,1-.06-.49-.59-1a4.56,4.56,0,0,0-2.54-1,4.38,4.38,0,0,0-2.64.58C383,88.87,382.74,89.24,382.83,89.35Z" style="fill: rgb(38, 50, 56); transform-origin: 386.1px 88.9503px;" id="elbs91z9jxp1a" class="animable"></path><path d="M375.16,101.88a11.84,11.84,0,0,0-2.83-.79c-.45-.09-.87-.22-.91-.54a2.29,2.29,0,0,1,.43-1.31c.52-1,1.08-2.16,1.66-3.32,2.32-4.73,4.05-8.63,3.86-8.73s-2.23,3.67-4.55,8.4c-.57,1.17-1.1,2.28-1.61,3.35a2.65,2.65,0,0,0-.41,1.75,1.12,1.12,0,0,0,.69.73,2.7,2.7,0,0,0,.75.18A11.41,11.41,0,0,0,375.16,101.88Z" style="fill: rgb(38, 50, 56); transform-origin: 374.083px 94.5372px;" id="elitd0sydfde" class="animable"></path><path d="M380.26,103.6c-.29,0-.47,1.88-2.25,3.09s-3.8.8-3.84,1.07c0,.12.42.42,1.28.52a4.79,4.79,0,0,0,3.2-.78,4.18,4.18,0,0,0,1.76-2.61C380.56,104.1,380.39,103.6,380.26,103.6Z" style="fill: rgb(38, 50, 56); transform-origin: 377.319px 105.955px;" id="elbudky6k3u7c" class="animable"></path><path d="M383,82.36c.13.5,1.92.44,4,.88s3.68,1.18,4,.77c.14-.2-.11-.68-.74-1.21a7.06,7.06,0,0,0-6.08-1.25C383.4,81.78,383,82.12,383,82.36Z" style="fill: rgb(38, 50, 56); transform-origin: 387.019px 82.728px;" id="el7upf7wevvge" class="animable"></path><path d="M366.58,82.3c.28.44,1.54.13,3,.25s2.68.53,3,.14c.14-.2,0-.62-.52-1a4.16,4.16,0,0,0-2.38-.89,4.23,4.23,0,0,0-2.47.58C366.67,81.7,366.46,82.1,366.58,82.3Z" style="fill: rgb(38, 50, 56); transform-origin: 369.589px 81.8215px;" id="el51lvpm0kanl" class="animable"></path><path d="M365.11,76.31s3.72-6.93,7.36-8.29c4.41-1.64,5.79,3.16,9.91,2.41s8.33-2.32,12.15,1.18c4.17,3.82,1.84,6,1.63,11.15-.83,20.85,2.4,27.07,4.4,17.4.22-1.06,3.27-1.63,4.14-6.11,1.13-5.81,2-12.91,1.11-17.19-.77-3.62-2.55-6.23-5.88-9.24-5.26-4.75-13-5.58-18.36-5.54S365.48,67.23,365.11,76.31Z" style="fill: rgb(38, 50, 56); transform-origin: 385.643px 83.3442px;" id="ele75hurmd41o" class="animable"></path><path d="M399.86,99.78a3.15,3.15,0,0,1,3.66-2.7c2.13.41,4.41,1.86,3.85,6.29-1,7.86-8.68,5.24-8.67,5S399.41,103.06,399.86,99.78Z" style="fill: rgb(159, 115, 98); transform-origin: 403.078px 103.007px;" id="eliwfsd82brxe" class="animable"></path><path d="M400.79,105.64s.12.11.34.25a1.39,1.39,0,0,0,1,.15c.87-.2,1.74-1.43,2-2.84a4.44,4.44,0,0,0-.13-2,1.58,1.58,0,0,0-.9-1.18.69.69,0,0,0-.85.27c-.14.21-.11.37-.15.38s-.15-.16-.05-.47a.94.94,0,0,1,.38-.46,1,1,0,0,1,.78-.1,1.94,1.94,0,0,1,1.27,1.4,4.65,4.65,0,0,1,.2,2.25c-.25,1.58-1.25,3-2.43,3.14a1.43,1.43,0,0,1-1.22-.37C400.78,105.83,400.76,105.65,400.79,105.64Z" style="fill: rgb(101, 70, 60); transform-origin: 402.758px 103.026px;" id="el8bvqik090wp" class="animable"></path><path d="M401.15,84.49a7.6,7.6,0,0,1-3.49,1.23A2.59,2.59,0,0,1,395,83.64c0-.56.15-1.18-.17-1.64s-1.19-.46-1.86-.46a5,5,0,0,1-4.88-4.1,2.12,2.12,0,0,1-2.86,0,11.34,11.34,0,0,1-1.93-2.5,3.26,3.26,0,0,0-2.58-1.61,7.49,7.49,0,0,1-1.75.22c-1-.19-1.41-1.45-1.47-2.49s-.07-2.25-.89-2.9-1.85-.39-2.82-.34-2.17-.29-2.33-1.24a1.9,1.9,0,0,1,.49-1.4,5.12,5.12,0,0,1,6.21-1.36A6.95,6.95,0,0,1,391,63.68a7,7,0,0,1,11,3.62,5.11,5.11,0,0,1,5,7.94,4.85,4.85,0,0,1,2.29,4.1c-.12,1.64-1.87,3.11-3.4,2.54a2.83,2.83,0,0,1-5.14,2.35" style="fill: rgb(38, 50, 56); transform-origin: 390.373px 72.6036px;" id="eln0ufrrfi47s" class="animable"></path><path d="M377.33,66.08a.79.79,0,0,0,0,.14c0,.1,0,.24,0,.43a5.19,5.19,0,0,0,.43,1.57,5.72,5.72,0,0,0,1.57,2,5.28,5.28,0,0,0,3.15,1.23l-.12-.19a2.86,2.86,0,0,0-.05,2.19,8.2,8.2,0,0,0,1.17,2.07,6.34,6.34,0,0,0,.79,1,2.89,2.89,0,0,0,1.21.58,2.86,2.86,0,0,0,2.62-.67l-.28-.11a5.91,5.91,0,0,0,2.12,4.32,4.28,4.28,0,0,0,2.51,1.1,8,8,0,0,0,2.6-.32l-.2-.11a6.12,6.12,0,0,0,1.64,2.6,3.3,3.3,0,0,0,2.67,1,4.38,4.38,0,0,0,3.67-3.08l-.19.07a4.06,4.06,0,0,0,2.67.65,4.44,4.44,0,0,0,2-.66,4,4,0,0,0,1-.88,2.35,2.35,0,0,0,.24-.39,5,5,0,0,1-1.28,1.15,4.35,4.35,0,0,1-1.92.59,3.91,3.91,0,0,1-2.51-.66l-.14-.1-.05.16a4.1,4.1,0,0,1-3.46,2.85,3,3,0,0,1-2.43-.94,6,6,0,0,1-1.53-2.47l-.05-.16-.15,0a7.51,7.51,0,0,1-2.49.31,4.07,4.07,0,0,1-2.32-1,5.65,5.65,0,0,1-2-4.08v-.38l-.27.27a2.56,2.56,0,0,1-2.32.59,2.42,2.42,0,0,1-1.07-.51,5.77,5.77,0,0,1-.75-.92,8.54,8.54,0,0,1-1.15-2,2.63,2.63,0,0,1,0-2l.08-.18h-.2a5.07,5.07,0,0,1-3-1.12,5.59,5.59,0,0,1-1.57-1.93A6.21,6.21,0,0,1,377.33,66.08Z" style="fill: rgb(69, 90, 100); transform-origin: 392.938px 75.5014px;" id="elr7bmkoj2wuj" class="animable"></path></g><g id="freepik--speech-bubble--inject-10" class="animable" style="transform-origin: 312.661px 74.7848px;"><path d="M342.15,100l-2.35-8.49a31.9,31.9,0,1,0-7.64,8.5v0Z" style="fill: rgb(255, 255, 255); transform-origin: 312.639px 74.7804px;" id="elzt5hwvood89" class="animable"></path><path d="M344.84,72.7l0-.85,0-.24a32.17,32.17,0,0,0-5.94-15.68,32.49,32.49,0,0,0-22.94-13.27,32.89,32.89,0,0,0-14.84,2,32.32,32.32,0,0,0-19.88,37.41A32.3,32.3,0,0,0,296.77,103a31.81,31.81,0,0,0,11,3.77,17.42,17.42,0,0,0,2.7.29l.92,0c.48,0,1,0,1.45,0h.25a33.12,33.12,0,0,0,4.95-.45,32.35,32.35,0,0,0,14.23-6.27l9.27-.12c.43,0,.63,0,.63,0a.24.24,0,0,0,.14-.05l0,0h0a.24.24,0,0,0,.06-.11h0a.24.24,0,0,0,0-.12s0-.18-.13-.55l-2.08-7.82a31.36,31.36,0,0,0,4.66-18.89Zm-12.9,27.05a32.07,32.07,0,0,1-14.05,6.1,32.65,32.65,0,0,1-4.83.41c-.53,0-1.06,0-1.62-.06l-.94,0a18.94,18.94,0,0,1-2.61-.29,31,31,0,0,1-10.66-3.7A31.36,31.36,0,0,1,289,54.39a31.06,31.06,0,0,1,12.44-8.76,31.85,31.85,0,0,1,11.43-2.11,29,29,0,0,1,2.95.14,31.37,31.37,0,0,1,13,4.3,31.78,31.78,0,0,1,9.33,8.52A31.2,31.2,0,0,1,343,66.8a30.59,30.59,0,0,1,.91,4.87l.08,1.12a28.57,28.57,0,0,1,0,4,31.58,31.58,0,0,1-4.54,14.54.34.34,0,0,0,0,.28l2.27,7.89.07.23h-.32l-9.22-.06A.31.31,0,0,0,331.94,99.75Z" style="fill: rgb(38, 50, 56); transform-origin: 312.661px 74.7848px;" id="eltury0jgxjn" class="animable"></path><path d="M310.23,74a2.6,2.6,0,0,1,1.31.29,1.5,1.5,0,0,0,.59.14h.53V67.67a1,1,0,0,0-1-1h-6.57v-.44a1.31,1.31,0,0,1,.14-.59,2.69,2.69,0,0,0,.23-1.65,2.74,2.74,0,0,0-5.43.47,2.63,2.63,0,0,0,.23,1.09,1.33,1.33,0,0,1,.12.55v.57H294a1,1,0,0,0-1,1V85.39a.82.82,0,0,0,.82.82h18.07a.82.82,0,0,0,.82-.82V79h-.73a1.37,1.37,0,0,0-.49.09,2.69,2.69,0,0,1-1,.2,2.72,2.72,0,0,1-2.73-2.83A2.64,2.64,0,0,1,310.23,74Z" style="fill: rgb(224, 224, 224); transform-origin: 302.855px 73.9894px;" id="el9cm5pzxztvl" class="animable"></path><path d="M319.87,69.17a2.67,2.67,0,0,1,.25-1.35,1.4,1.4,0,0,0,.13-.57v-.51h-6.6a1,1,0,0,0-1,1v6.57h-.45a1.31,1.31,0,0,1-.59-.14,2.74,2.74,0,1,0-1.19,5.2,2.67,2.67,0,0,0,1.1-.23,1.33,1.33,0,0,1,.55-.12h.58v6.41a1,1,0,0,0,1,1h17.83a.83.83,0,0,0,.83-.82V67.56a.83.83,0,0,0-.83-.82H325v.73a1.37,1.37,0,0,0,.09.49,2.65,2.65,0,0,1,.2,1,2.73,2.73,0,0,1-5.46.19Z" style="fill: rgb(69, 90, 100); transform-origin: 319.987px 76.585px;" id="el8tp5x6gu4r8" class="animable"></path></g><g id="freepik--Puzzle--inject-10" class="animable" style="transform-origin: 178.77px 351.9px;"><g id="elcab5rrpneli"><rect x="234.5" y="390.96" width="39.14" height="117.96" style="fill: rgb(224, 224, 224); transform-origin: 254.07px 449.94px; transform: rotate(-90deg);" class="animable"></rect></g><g id="elffbnxp9kbu"><rect x="234.5" y="390.96" width="39.14" height="117.96" style="opacity: 0.3; transform-origin: 254.07px 449.94px; transform: rotate(-90deg);" class="animable"></rect></g><polygon points="313.05 352.24 273.91 352.24 273.91 391.32 235.07 391.32 235.07 430.46 304.49 430.46 304.49 430.33 313.05 430.33 313.05 352.24" style="fill: rgb(69, 90, 100); transform-origin: 274.06px 391.35px;" id="elovvbt3lpvzb" class="animable"></polygon><g id="elai1q7yjsaut"><polygon points="313.05 352.24 273.91 352.24 273.91 391.32 235.07 391.32 235.07 430.46 304.49 430.46 304.49 430.33 313.05 430.33 313.05 352.24" style="opacity: 0.3; transform-origin: 274.06px 391.35px;" class="animable"></polygon></g><polygon points="273.67 274.46 229.32 274.46 229.32 313.21 273.67 313.21 273.67 352.12 312.81 352.12 312.81 313.21 312.81 274.46 273.67 274.46" style="fill: rgb(215, 187, 124); transform-origin: 271.065px 313.29px;" id="elfg7jy24kbzo" class="animable"></polygon><g id="el4psv7jpe21i"><polygon points="273.67 274.46 229.32 274.46 229.32 313.21 273.67 313.21 273.67 352.12 312.81 352.12 312.81 313.21 312.81 274.46 273.67 274.46" style="opacity: 0.3; transform-origin: 271.065px 313.29px;" class="animable"></polygon></g><rect x="111.55" y="234.27" width="73.43" height="78.81" style="fill: rgb(224, 224, 224); transform-origin: 148.265px 273.675px;" id="eljfkuy7cwpde" class="animable"></rect><g id="eldywza7q6xjh"><rect x="111.55" y="234.27" width="73.43" height="78.81" style="opacity: 0.3; transform-origin: 148.265px 273.675px;" class="animable"></rect></g><rect x="82.2" y="234.27" width="73.43" height="78.81" style="fill: rgb(224, 224, 224); transform-origin: 118.915px 273.675px;" id="elccgp18enqug" class="animable"></rect><polygon points="83.36 430.37 83.36 391.93 44.22 391.93 44.22 430.37 44.22 469.51 83.36 469.51 122.66 469.51 122.66 430.37 83.36 430.37" style="fill: rgb(224, 224, 224); transform-origin: 83.44px 430.72px;" id="el1h17db2qc7g" class="animable"></polygon><polygon points="161.3 352.48 121.85 352.48 121.85 313.08 82.71 313.08 82.71 352.48 43.41 352.48 43.41 391.62 82.71 391.62 82.71 430.37 121.85 430.37 121.85 391.62 161.3 391.62 161.3 352.48" style="fill: rgb(69, 90, 100); transform-origin: 102.355px 371.725px;" id="elxy096dzkr5" class="animable"></polygon><rect x="43.57" y="234.27" width="39.14" height="118.82" style="fill: rgb(215, 187, 124); transform-origin: 63.14px 293.68px;" id="elgwliwnx0ogh" class="animable"></rect><path d="M43.57,234.27s0,.21,0,.6l0,1.73c0,1.53,0,3.77,0,6.67,0,5.82,0,14.26.07,24.84,0,21.15.07,50.81.12,85l-.25-.25H82.71l-.26.26c0-47.65.07-90.35.09-118.82l.17.17L54,234.35l-7.71,0-2,0-.69,0,.65,0,2,0,7.68,0,28.84-.09h.17v.17c0,28.47.05,71.17.09,118.82v.26H43.31v-.25c0-34.23.09-64,.12-85.15,0-10.56.06-19,.07-24.78,0-2.88,0-5.1,0-6.62l0-1.7C43.56,234.46,43.57,234.27,43.57,234.27Z" style="fill: rgb(38, 50, 56); transform-origin: 63.17px 293.885px;" id="el9j750r8ztlh" class="animable"></path><polygon points="161.3 352.12 161.3 391.41 122.16 391.41 122.16 469.51 161.3 469.51 161.3 430.21 200.59 430.21 200.59 352.12 161.3 352.12" style="fill: rgb(215, 187, 124); transform-origin: 161.375px 410.815px;" id="elatjew652uj" class="animable"></polygon><polygon points="206.36 312.9 200.49 312.9 122.25 312.9 122.25 352.13 200.49 352.13 200.49 391.17 239.63 391.17 239.63 312.9 206.36 312.9" style="fill: rgb(224, 224, 224); transform-origin: 180.94px 352.035px;" id="eldp4kaxglhd" class="animable"></polygon><polygon points="239.43 274.46 195.09 274.46 195.09 313.21 239.43 313.21 239.43 352.12 278.57 352.12 278.57 313.21 278.57 274.46 239.43 274.46" style="fill: rgb(215, 187, 124); transform-origin: 236.83px 313.29px;" id="elca1tnjhyyb" class="animable"></polygon><polygon points="278.57 352.24 239.43 352.24 239.43 391.32 200.59 391.32 200.59 430.46 270.02 430.46 270.02 430.33 278.57 430.33 278.57 352.24" style="fill: rgb(69, 90, 100); transform-origin: 239.58px 391.35px;" id="ell7gcadaop4f" class="animable"></polygon><g id="elmnsgc81pwmh"><rect x="200.66" y="390.79" width="39.14" height="118.3" style="fill: rgb(224, 224, 224); transform-origin: 220.23px 449.94px; transform: rotate(-90deg);" class="animable"></rect></g><path d="M155.54,234.27a1.93,1.93,0,0,1,0,.39c0,.29,0,.67,0,1.15,0,1,0,2.52.05,4.42,0,3.87,0,9.41.08,16.25,0,13.75,0,32.7.07,53.62v3.06h-.26l-51.76-.08L88.2,313,84,313l-1.1,0a2.53,2.53,0,0,1-.37,0,1.7,1.7,0,0,1,.37,0l1.1,0,4.23-.05,15.58-.08,51.76-.08-.26.26v-2.8c0-20.92.06-39.87.08-53.62,0-6.84.06-12.38.08-16.25,0-1.9,0-3.38.05-4.42,0-.48,0-.86,0-1.15S155.54,234.27,155.54,234.27Z" style="fill: rgb(38, 50, 56); transform-origin: 119.135px 273.715px;" id="elq0qirl2umj" class="animable"></path><path d="M155.54,312.82s.52,0,1.53,0l4.46,0,17-.06,60.92-.09h.22v.22c0,22.8,0,49.65,0,78.5v.26H200.23v-.26c0-13.61,0-26.74,0-39.19l.24.24-78.64-.08h-.16v-.16c0-12.33,0-22.09.07-28.78,0-3.33,0-5.9,0-7.64,0-.86,0-1.51,0-2s0-.66,0-.66,0,.22,0,.66,0,1.11,0,2c0,1.74,0,4.31,0,7.64,0,6.69,0,16.45.07,28.78l-.16-.16,78.64-.09h.25v.25c0,12.45,0,25.58,0,39.19l-.26-.26h38.94l-.26.26c0-28.85,0-55.7,0-78.5l.22.22-60.92-.1-17-.06-4.46,0Z" style="fill: rgb(38, 50, 56); transform-origin: 180.66px 352.16px;" id="elx0kk5onzlwb" class="animable"></path><path d="M312.66,352.26c0,.14-16.41.26-36.64.26s-36.65-.12-36.65-.26S255.77,352,276,352,312.66,352.11,312.66,352.26Z" style="fill: rgb(38, 50, 56); transform-origin: 276.015px 352.26px;" id="elhm1y927wplk" class="animable"></path><path d="M314.23,430.34c0,.14-34.13.26-76.23.26s-76.24-.12-76.24-.26,34.12-.26,76.24-.26S314.23,430.2,314.23,430.34Z" style="fill: rgb(38, 50, 56); transform-origin: 237.995px 430.34px;" id="elv2cssgrc1ej" class="animable"></path><path d="M200.59,392.63c.15,0,.26,8.34.26,18.62s-.11,18.62-.26,18.62-.26-8.34-.26-18.62S200.45,392.63,200.59,392.63Z" style="fill: rgb(38, 50, 56); transform-origin: 200.59px 411.25px;" id="elr7fmqq0jye" class="animable"></path><path d="M161.08,469.54c-.14,0-.26-8.78-.26-19.6s.12-19.6.26-19.6.26,8.77.26,19.6S161.23,469.54,161.08,469.54Z" style="fill: rgb(38, 50, 56); transform-origin: 161.08px 449.94px;" id="elqxuizba90rp" class="animable"></path><path d="M161.3,352.48a1.23,1.23,0,0,1,0,.18l0,.53c0,.51,0,1.2,0,2.1,0,1.86,0,4.54.06,7.94,0,6.87,0,16.63.09,28.33v.23h-.22l-38.78,0h-.27l.26-.26c0,21.44-.06,40.83-.08,54.89,0,7-.06,12.68-.08,16.63,0,1.94,0,3.46,0,4.52,0,.49,0,.88,0,1.17a2,2,0,0,1,0,.4,2,2,0,0,1,0-.4c0-.29,0-.68,0-1.17,0-1.06,0-2.58,0-4.52,0-3.95-.05-9.63-.09-16.63,0-14.06,0-33.45-.07-54.89v-.26h.53l38.78,0-.23.22c0-11.7.07-21.46.09-28.33,0-3.4.05-6.08.07-7.94q0-1.35,0-2.1c0-.22,0-.39,0-.53S161.29,352.48,161.3,352.48Z" style="fill: rgb(38, 50, 56); transform-origin: 141.785px 410.809px;" id="el9jxhs3j37wk" class="animable"></path><path d="M121.85,430.37l-.19,0-.56,0-2.15,0-8.1.07-28.14.09h-.25v-.24c0-6,0-12.6,0-19.45s0-13.33,0-19.3l.25.24-28.25-.09-8.13-.07-2.17,0-.56,0-.19,0s.07,0,.19,0l.56,0,2.17,0,8.13-.07,28.25-.1H83v.25c0,6,0,12.5,0,19.3s0,13.43,0,19.45l-.24-.25,28.14.1,8.1.07,2.15,0,.56,0C121.79,430.35,121.85,430.36,121.85,430.37Z" style="fill: rgb(38, 50, 56); transform-origin: 82.63px 410.99px;" id="elmtqi1135ju" class="animable"></path><path d="M312.81,274.46a1.79,1.79,0,0,1-.4,0l-1.19,0-4.54.05-16.7.08-55.11.08-40,0,.22-.22c0,11.39-.07,20.88-.09,27.55,0,3.3,0,5.91-.06,7.71,0,.87,0,1.55,0,2,0,.22,0,.39,0,.52s0,.18,0,.18,0-.24,0-.7,0-1.16,0-2c0-1.8,0-4.41-.06-7.71,0-6.67-.06-16.16-.1-27.55v-.23h.23l40,0,55.11.07,16.7.09,4.54,0,1.19,0Z" style="fill: rgb(38, 50, 56); transform-origin: 253.795px 293.315px;" id="elrh3kf67zvt" class="animable"></path></g><defs>     <filter id="active" height="200%">         <feMorphology in="SourceAlpha" result="DILATED" operator="dilate" radius="2"></feMorphology>                <feFlood flood-color="#32DFEC" flood-opacity="1" result="PINK"></feFlood>        <feComposite in="PINK" in2="DILATED" operator="in" result="OUTLINE"></feComposite>        <feMerge>            <feMergeNode in="OUTLINE"></feMergeNode>            <feMergeNode in="SourceGraphic"></feMergeNode>        </feMerge>    </filter>    <filter id="hover" height="200%">        <feMorphology in="SourceAlpha" result="DILATED" operator="dilate" radius="2"></feMorphology>                <feFlood flood-color="#ff0000" flood-opacity="0.5" result="PINK"></feFlood>        <feComposite in="PINK" in2="DILATED" operator="in" result="OUTLINE"></feComposite>        <feMerge>            <feMergeNode in="OUTLINE"></feMergeNode>            <feMergeNode in="SourceGraphic"></feMergeNode>        </feMerge>            <feColorMatrix type="matrix" values="0   0   0   0   0                0   1   0   0   0                0   0   0   0   0                0   0   0   1   0 "></feColorMatrix>    </filter></defs></svg>